<?xml version="1.0" standalone="no"?>
<!DOCTYPE svg PUBLIC "-//W3C//DTD SVG 20010904//EN"
 "http://www.w3.org/TR/2001/REC-SVG-20010904/DTD/svg10.dtd">
<svg version="1.0" xmlns="http://www.w3.org/2000/svg"
 width="24" height="24" viewBox="0 0 24 24"
 preserveAspectRatio="xMidYMid meet" fill="#000000" stroke="none">
<path d="M930 2707 c-18 -9 -26 -22 -28 -48 -3 -35 42 -289 168 -954 65 -340
92 -484 190 -1010 34 -181 67 -344 75 -361 17 -42 56 -54 171 -54 112 0 141 9
158 52 8 18 37 159 66 313 76 409 110 591 200 1070 45 237 94 502 110 590 16
88 36 193 45 233 34 165 22 182 -127 182 -53 0 -121 -5 -150 -11 -29 -7 -159
-65 -291 -131 -131 -66 -244 -117 -251 -115 -12 5 -36 105 -36 151 0 32 -30
83 -56 95 -34 15 -212 14 -244 -2z m239 -34 c16 -14 25 -41 36 -108 17 -98 35
-135 65 -135 10 0 133 56 272 125 246 122 255 125 334 131 45 4 107 3 138 0
53 -7 56 -9 56 -36 0 -26 -22 -149 -155 -850 -55 -292 -117 -625 -190 -1015
-78 -420 -84 -448 -96 -460 -12 -12 -165 -20 -214 -11 -20 4 -41 16 -49 29 -8
12 -46 195 -86 407 -39 212 -89 477 -110 590 -22 113 -62 324 -89 470 -169
896 -164 865 -133 873 9 3 58 5 108 6 74 1 96 -2 113 -16z"/>
<path d="M1698 2348 c-46 -9 -355 -162 -385 -191 -17 -15 -23 -32 -23 -63 0
-34 167 -1066 185 -1141 8 -33 42 -30 49 5 4 15 55 322 115 682 73 433 107
665 103 686 -7 29 -9 30 -44 22z m16 -37 c3 -4 -42 -291 -99 -637 -58 -346
-105 -639 -105 -651 0 -13 -3 -23 -7 -23 -11 0 -185 1059 -181 1100 3 35 5 36
183 127 181 93 199 100 209 84z"/>
</svg>
